<?xml version="1.0" standalone="no"?>
<!DOCTYPE svg PUBLIC "-//W3C//DTD SVG 20010904//EN"
 "http://www.w3.org/TR/2001/REC-SVG-20010904/DTD/svg10.dtd">
<svg version="1.0" xmlns="http://www.w3.org/2000/svg"
 width="512.000000pt" height="512.000000pt" viewBox="0 0 512.000000 512.000000"
 preserveAspectRatio="xMidYMid meet">
<metadata>
Created by potrace 1.11, written by Peter Selinger 2001-2013
</metadata>
<g transform="translate(0.000000,512.000000) scale(0.100000,-0.100000)"
fill="#000000" stroke="none">
<path d="M2385 4857 c-44 -29 -134 -86 -200 -128 -66 -42 -295 -189 -510 -326
-214 -137 -509 -325 -655 -418 -146 -92 -271 -173 -278 -180 -10 -8 7 -11 70
-9 46 1 205 5 353 8 501 11 829 18 940 21 61 2 170 4 243 4 l132 1 0 540 c0
297 -3 540 -7 540 -5 0 -44 -24 -88 -53z m-255 -512 c41 -21 51 -44 35 -80
-43 -99 -179 -179 -305 -179 -52 0 -74 5 -110 26 -25 15 -57 31 -72 37 -40 15
-58 -7 -53 -62 10 -83 -7 -107 -81 -122 l-31 -6 1 117 1 118 35 14 c19 8 69
15 110 15 63 1 85 -4 135 -27 73 -35 136 -37 198 -7 24 12 50 33 58 47 12 23
11 27 -6 41 -14 10 -33 12 -67 8 -45 -6 -47 -6 -43 16 6 30 17 40 57 49 54 13
107 11 138 -5z"/>
<path d="M2640 4371 l0 -541 123 -1 c67 0 181 -2 252 -4 72 -2 256 -6 410 -9
358 -8 799 -17 894 -20 64 -1 71 0 55 12 -31 23 -300 195 -650 417 -52 33
-231 148 -399 255 -168 107 -333 213 -367 235 -35 21 -114 72 -176 113 -63 40
-120 76 -128 79 -12 4 -14 -73 -14 -536z m450 -16 c24 -8 65 -29 92 -45 54
-33 83 -41 113 -30 43 16 177 -35 232 -87 86 -81 96 -157 26 -184 -49 -19
-183 26 -183 61 0 11 28 20 75 24 20 2 41 8 46 13 14 14 -29 63 -70 81 -61 25
-89 25 -107 -3 -24 -36 -60 -32 -100 11 -19 19 -34 39 -34 44 0 11 -64 40 -98
45 -74 9 -67 -54 10 -92 49 -24 55 -46 17 -58 -65 -21 -199 110 -181 177 6 25
51 53 90 56 16 1 49 -5 72 -13z"/>
<path d="M2067 3663 c-1 0 -146 -4 -322 -8 -954 -19 -1178 -25 -1183 -30 -3
-2 105 -300 238 -662 134 -362 256 -694 272 -738 90 -249 192 -515 197 -515 3
1 67 105 141 233 160 277 796 1366 809 1387 6 8 32 53 59 100 27 47 70 120 96
163 l46 78 -176 -3 c-96 -2 -176 -4 -177 -5z m-483 -351 c74 -43 100 -139 51
-188 -31 -31 -47 -24 -78 36 -28 58 -65 77 -105 56 -28 -14 -73 -66 -84 -96
-4 -12 3 -14 36 -12 73 6 149 -69 159 -159 14 -112 -86 -269 -186 -294 -78
-20 -164 24 -198 100 -27 58 -23 111 15 228 46 140 78 201 140 262 92 91 172
113 250 67z"/>
<path d="M1317 2988 c-34 -33 -45 -67 -44 -131 2 -68 21 -91 72 -90 43 1 71
24 91 73 30 70 16 137 -33 159 -36 17 -59 13 -86 -11z"/>
<path d="M2749 3588 c219 -372 381 -652 381 -659 0 -5 5 -9 10 -9 6 0 10 -4
10 -9 0 -5 66 -121 146 -257 81 -137 158 -270 173 -295 145 -254 377 -648 382
-649 5 0 69 167 209 550 16 41 70 188 120 325 335 904 383 1036 378 1040 -3 4
-185 9 -688 20 -555 12 -700 15 -928 21 l-242 5 49 -83z m1140 -203 c122 -63
221 -255 222 -432 0 -60 -4 -81 -26 -122 -23 -41 -37 -54 -79 -72 -50 -21 -51
-21 -104 -3 -70 23 -136 95 -191 208 -116 237 -98 426 42 446 50 7 89 0 136
-25z m-326 -448 c76 -172 137 -315 137 -318 0 -8 -90 -43 -95 -37 -4 3 -153
322 -185 395 l-14 32 -31 -19 c-48 -30 -82 -32 -100 -7 -23 33 -18 51 25 90
32 29 40 42 40 71 0 40 16 87 33 98 42 27 48 17 190 -305z"/>
<path d="M3766 3295 c-20 -20 -20 -65 -1 -148 19 -82 39 -130 80 -192 49 -74
69 -90 116 -86 46 3 46 109 0 226 -38 99 -73 154 -114 182 -48 33 -63 36 -81
18z"/>
<path d="M2470 3443 c-47 -80 -98 -169 -115 -198 -16 -28 -127 -217 -245 -418
-118 -202 -220 -374 -225 -384 -15 -27 -87 -151 -109 -186 -164 -278 -376
-646 -376 -653 0 -5 460 -9 1164 -9 1161 0 1164 0 1153 20 -13 25 -237 410
-437 750 -84 143 -162 276 -173 295 -10 19 -72 125 -137 235 -65 110 -128 219
-141 241 -130 226 -265 453 -269 454 -3 0 -43 -66 -90 -147z m-95 -851 c114
-59 155 -178 100 -289 -29 -57 -76 -99 -182 -161 -40 -23 -79 -52 -88 -64 -14
-21 -14 -23 7 -31 13 -5 82 -8 154 -8 l131 1 -2 -47 c-3 -61 -18 -71 -102 -67
-38 1 -141 3 -229 3 l-161 1 8 45 c17 93 67 158 179 234 123 84 170 140 170
204 0 57 -84 110 -141 89 -15 -6 -40 -34 -60 -66 -35 -59 -72 -80 -114 -66
-65 23 3 177 99 225 44 23 60 26 121 22 44 -2 85 -11 110 -25z m570 -2 c59
-29 99 -81 129 -170 81 -240 -39 -510 -226 -510 -54 0 -137 39 -173 82 -125
149 -116 428 19 563 66 66 160 79 251 35z"/>
<path d="M2801 2484 c-38 -27 -55 -84 -65 -213 -7 -94 33 -219 77 -237 79 -34
131 51 136 221 4 133 -40 245 -97 245 -15 0 -38 -7 -51 -16z"/>
<path d="M521 2954 c-1 -283 0 -302 18 -318 18 -16 20 -16 40 5 42 45 45 22
46 -311 0 -171 -1 -310 -2 -310 -1 0 -11 12 -20 27 -15 23 -19 59 -23 245 -4
155 -8 221 -17 226 -7 4 -19 23 -27 42 -14 32 -15 -15 -16 -498 l0 -533 73 6
c39 3 90 7 112 10 39 4 97 10 235 22 157 13 195 19 193 30 -3 13 -100 279
-113 308 -7 17 -129 346 -255 690 -18 50 -58 160 -90 245 -32 85 -73 198 -92
250 -19 52 -41 111 -48 130 -12 31 -14 -4 -14 -266z m263 -533 c31 -26 86
-176 86 -235 0 -18 -1 -18 -20 -1 -11 10 -22 27 -26 39 -3 11 -13 41 -22 65
l-16 44 -18 -23 c-25 -31 -25 -100 1 -100 21 0 71 -101 94 -190 23 -90 12
-242 -18 -254 -19 -7 -68 43 -92 96 -56 118 -73 382 -36 537 3 14 7 29 10 33
5 9 42 2 57 -11z"/>
<path d="M753 2104 c-21 -54 4 -183 42 -214 25 -21 33 0 28 82 -4 71 -18 113
-47 137 -13 11 -17 10 -23 -5z"/>
<path d="M4547 3117 c-76 -205 -181 -492 -267 -722 -138 -372 -291 -790 -293
-800 -1 -5 7 -10 18 -11 74 -8 138 -15 190 -19 86 -7 164 -14 210 -20 22 -2
75 -7 118 -11 l77 -6 0 861 c0 474 -1 861 -2 861 -2 0 -25 -60 -51 -133z m10
-455 c24 -15 30 -60 28 -197 -3 -171 -10 -229 -36 -320 -36 -124 -100 -189
-123 -124 -10 30 -4 65 18 94 13 16 17 17 24 7 19 -28 64 59 77 149 7 48 -10
59 -25 15 -6 -19 -22 -46 -35 -60 -35 -38 -61 -22 -71 42 -15 91 -3 180 36
284 39 103 69 134 107 110z m-217 -519 c0 -304 0 -308 -23 -336 l-22 -28 0
206 0 207 -20 -26 c-28 -36 -55 -35 -49 1 3 15 14 41 24 58 10 16 26 57 35 90
19 67 45 135 51 135 2 0 4 -138 4 -307z"/>
<path d="M4485 2528 c-30 -74 -31 -204 -1 -192 18 7 36 48 51 115 10 46 9 61
-2 83 -18 35 -31 33 -48 -6z"/>
<path d="M1444 1429 c-2 -3 11 -21 29 -40 18 -19 78 -83 132 -144 55 -60 107
-117 115 -125 12 -12 132 -143 225 -246 6 -6 49 -53 96 -105 48 -52 99 -107
114 -124 15 -16 46 -50 69 -75 22 -25 88 -97 146 -160 58 -63 124 -135 147
-160 l43 -45 38 40 c21 22 89 96 152 165 63 69 137 150 165 180 43 45 102 111
160 176 6 6 55 60 110 119 55 59 108 117 118 129 23 25 172 190 243 266 104
112 126 138 125 146 -1 10 -2221 13 -2227 3z m914 -381 l2 -218 -65 0 c-45 0
-65 4 -66 13 -1 6 -2 73 -3 147 l-1 135 -70 0 c-74 1 -95 7 -95 30 0 20 17 28
78 36 38 5 60 15 77 33 13 14 36 28 52 31 15 4 33 8 38 9 6 2 19 2 30 2 19 -1
20 -9 23 -218z m495 202 l167 0 0 -29 c0 -16 -6 -33 -13 -39 -7 -6 -66 -10
-146 -10 -119 1 -135 -1 -148 -17 -7 -11 -13 -27 -13 -38 0 -16 4 -17 33 -10
43 10 122 8 173 -6 90 -24 153 -97 139 -161 -10 -43 -65 -87 -143 -110 -79
-24 -115 -27 -191 -16 -63 8 -85 18 -123 54 -26 24 -38 70 -20 73 61 9 132 -7
132 -30 0 -15 45 -28 91 -26 45 3 108 28 110 43 0 4 2 16 4 26 5 28 -11 53
-45 71 -37 19 -83 19 -160 -1 -106 -27 -139 -4 -115 82 7 27 16 66 20 86 7 46
31 71 59 64 12 -3 96 -6 189 -6z"/>
<path d="M1137 1423 c-2 -1 -42 -5 -91 -8 -48 -4 -96 -8 -105 -10 -24 -4 -235
-19 -243 -17 -34 9 21 -31 195 -142 111 -72 249 -161 306 -198 57 -37 105 -68
107 -68 2 0 -26 39 -63 86 -63 83 -94 110 -182 164 -60 35 -53 51 11 25 10 -4
17 -1 20 9 3 14 7 13 36 -1 22 -10 80 -76 170 -190 l137 -174 260 -166 c143
-92 286 -184 318 -205 87 -59 85 -56 -99 142 -33 36 -113 122 -177 192 -64 70
-117 125 -117 122 0 -2 54 -69 120 -147 66 -78 116 -143 110 -145 -23 -8 -101
61 -185 164 -85 105 -138 154 -167 154 -7 0 -26 11 -43 25 -33 26 -19 34 29
15 14 -5 25 -6 23 -2 -2 7 6 12 23 12 5 0 26 -14 47 -32 l38 -32 -40 44 c-22
25 -42 47 -45 50 -18 19 -140 151 -219 238 -91 99 -95 102 -133 100 -22 -2
-40 -4 -41 -5z"/>
<path d="M3809 1328 c-52 -56 -116 -127 -144 -157 -27 -30 -78 -84 -112 -120
-34 -36 -60 -68 -58 -70 3 -2 44 26 92 63 48 36 91 66 96 66 14 0 7 -17 -21
-46 -15 -16 -70 -80 -122 -143 -51 -63 -101 -122 -109 -130 -24 -24 -82 -64
-86 -59 -4 4 51 77 127 171 22 26 35 47 30 47 -28 0 -77 -40 -156 -127 -49
-54 -135 -147 -190 -207 -56 -59 -102 -112 -104 -117 -2 -5 90 52 205 125 114
74 276 178 359 230 82 52 158 104 168 115 37 41 8 39 -68 -4 -43 -25 -82 -43
-85 -39 -8 8 92 102 219 204 58 46 116 95 130 108 28 25 129 86 135 81 2 -2
-30 -46 -72 -98 -41 -52 -68 -91 -59 -88 39 15 -5 -38 -51 -62 -13 -6 -23 -16
-23 -21 0 -5 29 10 64 33 60 39 135 88 363 233 51 32 93 62 93 65 0 3 -21 7
-47 8 -27 1 -64 4 -83 6 -19 2 -71 6 -115 9 -44 3 -96 8 -115 11 -19 3 -65 7
-101 10 l-66 5 -94 -102z"/>
<path d="M3920 1157 c-26 -23 -74 -64 -107 -92 -34 -27 -60 -51 -58 -53 6 -6
107 64 143 99 31 30 78 89 70 89 -2 0 -23 -20 -48 -43z"/>
</g>
</svg>
